HIERARCHY
ROOT Hips
{
	OFFSET -3.958830 18.904000 13.208200
	CHANNELS 6 Xposition Yposition Zposition Zrotation Yrotation Xrotation 
	JOINT LHipJoint
	{
		OFFSET 0.000000 0.000000 0.000000
		CHANNELS 3 Zrotation Yrotation Xrotation
		JOINT LeftUpLeg
		{
			OFFSET 1.800000 -1.400000 0.085000
			CHANNELS 3 Zrotation Yrotation Xrotation
			JOINT LeftLeg
			{
				OFFSET 2.215000 -6.000000 0.000000
				CHANNELS 3 Zrotation Yrotation Xrotation
				JOINT LeftFoot
				{
					OFFSET 2.500000 -6.900000 0.000000
					CHANNELS 3 Zrotation Yrotation Xrotation
					JOINT LeftToeBase
					{
						OFFSET 0.200000 -0.500000 1.950000
						CHANNELS 3 Zrotation Yrotation Xrotation
						End Site
						{
							OFFSET 0.000000 0.000000 0.000000
						}
					}
				}
			}
		}
	}
	JOINT RHipJoint
	{
		OFFSET 0.000000 0.000000 0.000000
		CHANNELS 3 Zrotation Yrotation Xrotation
		JOINT RightUpLeg
		{
			OFFSET -1.800000 -1.400000 0.085000
			CHANNELS 3 Zrotation Yrotation Xrotation
			JOINT RightLeg
			{
				OFFSET -2.215000 -6.000000 0.000000
				CHANNELS 3 Zrotation Yrotation Xrotation
				JOINT RightFoot
				{
					OFFSET -2.500000 -6.900000 0.000000
					CHANNELS 3 Zrotation Yrotation Xrotation
					JOINT RightToeBase
					{
						OFFSET -0.200000 -0.500000 1.950000
						CHANNELS 3 Zrotation Yrotation Xrotation
						End Site
						{
							OFFSET 0.000000 0.000000 0.000000
						}
					}
				}
			}
		}
	}
	JOINT LowerBack
	{
		OFFSET 0.000000 0.000000 0.000000
		CHANNELS 3 Zrotation Yrotation Xrotation
		JOINT Spine
		{
			OFFSET -0.087000 1.940000 -0.288900
			CHANNELS 3 Zrotation Yrotation Xrotation
			JOINT Spine1
			{
				OFFSET 0.000000 1.950000 0.060000
				CHANNELS 3 Zrotation Yrotation Xrotation
				JOINT Neck
				{
					OFFSET 0.000000 0.000000 0.000000
					CHANNELS 3 Zrotation Yrotation Xrotation
					JOINT Neck1
					{
						OFFSET 0.000000 1.600000 0.340000
						CHANNELS 3 Zrotation Yrotation Xrotation
						JOINT Head
						{
							OFFSET 0.000000 1.667000 -0.240000
							CHANNELS 3 Zrotation Yrotation Xrotation
							End Site
							{
								OFFSET 0.000000 0.000000 0.000000
							}
						}
					}
				}
				JOINT LeftShoulder
				{
					OFFSET 0.000000 0.000000 0.000000
					CHANNELS 3 Zrotation Yrotation Xrotation
					JOINT LeftArm
					{
						OFFSET 2.700000 1.550000 -0.730000
						CHANNELS 3 Zrotation Yrotation Xrotation
						JOINT LeftForeArm
						{
							OFFSET 5.450000 0.000000 0.000000
							CHANNELS 3 Zrotation Yrotation Xrotation
							JOINT LeftHand
							{
								OFFSET 3.450000 0.000000 0.000000
								CHANNELS 3 Zrotation Yrotation Xrotation
								JOINT LeftHandIndex1
								{
									OFFSET 0.750000 0.000000 0.000000
									CHANNELS 3 Zrotation Yrotation Xrotation
									End Site
									{
										OFFSET 0.000000 0.000000 0.000000
									}
								}
							}
						}
					}
				}
				JOINT RightShoulder
				{
					OFFSET 0.000000 0.000000 0.000000
					CHANNELS 3 Zrotation Yrotation Xrotation
					JOINT RightArm
					{
						OFFSET -2.700000 1.550000 -0.730000
						CHANNELS 3 Zrotation Yrotation Xrotation
						JOINT RightForeArm
						{
							OFFSET -5.450000 0.000000 0.000000
							CHANNELS 3 Zrotation Yrotation Xrotation
							JOINT RightHand
							{
								OFFSET -3.450000 0.000000 0.000000
								CHANNELS 3 Zrotation Yrotation Xrotation
								JOINT RightHandIndex1
								{
									OFFSET -0.750000 0.000000 0.000000
									CHANNELS 3 Zrotation Yrotation Xrotation
									End Site
									{
										OFFSET 0.000000 0.000000 0.000000
									}
								}
							}
						}
					}
				}
			}
		}
	}
}
MOTION
Frames: 8
Frame Time: 0.016667
4.297040 16.333330 -3.381020 -1.634490 -59.630702 19.772077 -15.332329 12.321101 2.426793 18.726728 -2.807874 -10.687718 -10.726746 6.423807 8.799097 -0.134484 5.037509 2.915442 0.379150 0.143860 0.343520 18.433790 -8.593490 4.424960 -20.580055 2.337065 -48.744029 8.360998 -3.940603 7.888330 -0.019497 -2.475500 3.383543 0.099680 0.291660 0.298240 -4.709310 -2.762204 -7.417418 22.395588 -12.015944 9.588503 -16.301499 -9.794182 2.302876 4.038985 -11.409712 -5.458528 -22.028254 17.969172 16.891906 -8.325440 15.650460 -8.264320 -20.497025 8.165099 -3.391260 -59.435408 -0.013537 -9.310589 -9.934508 -16.543406 -1.058962 -3.866949 2.990016 0.317560 0.219500 0.019920 0.259750 11.709697 -5.963253 3.702528 69.334285 -12.721078 -21.673353 46.651126 32.500434 6.620379 2.283268 -1.726210 -0.136390 0.077110 -0.183010 -0.084790 
4.340540 16.202170 -3.378870 -2.266571 -61.560385 20.043213 -15.329655 12.350362 2.424639 18.749614 -2.783755 -10.577411 -11.728288 7.132838 10.864301 -0.062972 5.241190 2.819665 0.365160 0.111600 0.341520 18.434808 -8.464031 4.651954 -20.944868 2.611924 -50.728366 9.000004 -4.197653 8.985638 -0.051176 -2.485842 3.373622 0.045150 0.234810 0.290000 -4.736025 -2.908458 -7.619605 22.820299 -12.739966 12.775025 -16.904308 -10.085370 -0.829625 4.667952 -11.760716 -5.484447 -22.732525 18.240097 16.237126 -8.666690 16.141750 -9.909390 -23.726015 7.619883 -3.697484 -55.459585 2.529161 -10.025811 -10.219558 -16.331295 -0.976487 -3.757394 3.015901 0.372620 0.147940 0.058200 0.242850 13.706485 -5.595394 4.032584 68.570516 -14.850451 -22.728844 47.259794 32.959035 6.822546 2.329988 -1.661426 -0.117890 0.052450 -0.177800 -0.091130 
4.388920 16.109430 -3.392730 -3.086859 -63.839755 20.796878 -15.321747 12.387880 2.357721 18.522938 -2.773230 -11.111654 -11.981659 7.836968 13.678821 0.038807 5.373981 2.767545 0.359010 0.121690 0.315890 18.456809 -8.291919 4.959755 -21.493432 3.130186 -53.607409 9.886292 -4.718324 11.460688 -0.096056 -2.610150 3.347746 0.004100 0.210880 0.279700 -4.715247 -3.050019 -7.809555 22.529592 -13.440561 16.036423 -16.897990 -10.287412 -3.556714 4.981608 -12.140127 -6.057198 -23.691055 18.696582 15.293848 -8.709740 16.388430 -11.387400 -25.705032 6.264760 -2.969348 -52.404493 5.367973 -11.132126 -11.405125 -18.662987 -0.699315 -3.621617 3.068936 0.388770 0.092900 0.101980 0.267200 15.312862 -3.906350 4.308990 67.545652 -14.913644 -22.879989 45.452668 33.734908 6.684884 2.391054 -1.613896 -0.082670 0.053620 -0.200290 -0.054460 
4.441970 16.055320 -3.414950 -3.637263 -65.541589 21.149785 -15.337601 12.373483 2.357395 18.790735 -2.881363 -12.279283 -12.475643 8.725979 16.853932 0.083136 5.663696 2.634697 0.387200 0.148360 0.339410 18.462067 -8.111767 5.195474 -22.043035 3.657949 -55.810776 10.535866 -5.136539 13.599500 -0.149076 -2.733513 3.299980 -0.000770 0.154280 0.267470 -4.655229 -3.179364 -7.977529 21.666941 -13.851651 19.069733 -15.935196 -10.231674 -4.843626 4.878099 -12.658006 -6.665915 -25.150626 18.777646 14.614499 -9.653800 15.896030 -14.330230 -25.719789 5.486308 -2.253198 -51.778998 6.941883 -12.236146 -13.388326 -21.241215 -0.413431 -3.512201 3.089868 0.439910 0.025660 0.150640 0.270820 15.818233 -2.347763 4.303687 65.521113 -13.746298 -22.043883 44.862439 33.615783 6.685832 2.423801 -1.594279 -0.068460 0.063720 -0.219820 -0.055290 
4.480120 16.042730 -3.438800 -3.038600 -66.393274 20.319302 -15.362475 12.362418 2.407376 18.755168 -3.074582 -13.336612 -12.936203 9.393724 19.267293 0.121920 5.897153 2.531940 0.429760 0.194030 0.382490 18.442100 -8.032761 5.297382 -22.282807 3.772370 -56.693384 10.776617 -5.283344 14.495630 -0.195667 -2.758925 3.283099 0.008810 0.092940 0.244270 -4.614545 -3.254690 -8.084192 20.593966 -14.418071 21.705806 -15.296448 -10.528202 -5.487105 4.749227 -13.139484 -7.159419 -26.541483 18.659144 14.248875 -10.233880 14.897190 -17.683400 -25.141865 4.864419 -1.575401 -51.787865 7.820969 -13.221282 -14.874214 -23.867054 -0.118701 -3.408075 3.089250 0.489710 -0.048510 0.202680 0.273090 15.721798 -1.045719 4.192293 63.189071 -12.056290 -20.624520 45.517697 32.361378 6.650120 2.464583 -1.580978 -0.056200 0.089090 -0.249480 -0.056520 
4.491890 16.042470 -3.462040 -2.676120 -66.788023 19.472389 -15.365799 12.419255 2.462266 18.598869 -3.144241 -13.877003 -12.948497 9.731099 20.753537 0.130434 6.038468 2.471138 0.428840 0.188020 0.390260 18.412630 -8.105941 5.258645 -21.688101 3.942656 -56.142400 10.143859 -4.959248 13.794261 -0.188372 -2.562607 3.359266 -0.002110 0.066880 0.230710 -4.600158 -3.249319 -8.114465 19.962594 -14.365648 23.404852 -15.014766 -10.349744 -5.416575 4.738205 -13.332594 -7.511885 -27.223356 17.901057 15.181287 -10.753460 13.766200 -19.368270 -24.214183 4.671865 -1.347957 -51.442278 7.568032 -13.380498 -16.306105 -25.129506 0.174844 -3.376168 3.063600 0.524990 -0.083090 0.223920 0.262650 14.877463 -0.369139 4.310041 61.829696 -11.146214 -19.931887 46.871762 32.491186 7.176758 2.464196 -1.569645 -0.058560 0.112880 -0.241250 -0.063280 
4.490620 16.047410 -3.493790 -3.415007 -66.827246 20.153614 -15.359247 12.406050 2.504692 19.057870 -3.210676 -14.772154 -12.796769 9.987660 21.930979 0.161719 6.131272 2.415186 0.448310 0.223530 0.394980 18.415262 -8.102678 5.261582 -21.549213 4.244138 -55.800313 10.686761 -4.794162 13.124451 -0.193840 -2.499613 3.386588 0.003660 0.038010 0.233320 -4.586131 -3.224718 -8.152606 19.923022 -14.273248 24.035609 -14.839944 -10.032436 -4.966588 4.796776 -13.339443 -7.946260 -27.396035 17.434530 15.947813 -11.118800 13.358920 -19.719270 -23.216031 4.109074 -0.933932 -50.818339 7.367390 -13.298819 -18.036566 -25.506948 0.484633 -3.347974 3.091524 0.520500 -0.099200 0.247980 0.272710 13.820557 0.593470 4.506704 60.634179 -10.185557 -19.313416 47.254150 32.125607 7.178503 2.471177 -1.599656 -0.032740 0.098970 -0.262970 -0.052190 
4.486830 16.048460 -3.537370 -4.316316 -66.495414 21.326794 -15.357879 12.366655 2.533359 19.723687 -3.286763 -16.129898 -12.271845 10.202675 23.275537 0.150866 6.260027 2.349363 0.433070 0.204090 0.402750 18.433675 -8.039353 5.302872 -21.474645 4.615427 -56.283326 10.939412 -4.864163 13.558966 -0.181817 -2.526828 3.375080 -0.001100 0.042460 0.237730 -4.556010 -3.237295 -8.196745 20.026037 -14.162930 23.994854 -14.728424 -9.691872 -4.227048 4.943557 -13.188605 -8.299402 -27.002736 17.013015 16.474942 -11.835610 13.402320 -18.889970 -22.416083 3.402492 -0.574880 -49.967096 6.988570 -12.916612 -18.219116 -25.631135 0.564316 -3.382238 3.089527 0.504690 -0.077600 0.235490 0.255450 12.765289 1.531238 4.773669 58.738382 -9.403551 -18.529319 48.400489 32.742148 7.742682 2.451935 -1.638895 -0.036780 0.092880 -0.250740 -0.062960 
